<svg width="78" height="25" viewBox="0 0 78 25" fill="none" xmlns="http://www.w3.org/2000/svg">
<path d="M0.213379 23.6942H9.10272C13.776 23.6942 16.265 20.9248 16.265 17.1632C16.265 13.6669 14.0604 11.5552 11.6933 11.4283V11.1975C13.8573 10.6437 15.4523 8.9013 15.4523 6.12042C15.4523 2.57798 13.1359 0.0625 8.54396 0.0625H0.213379V23.6942ZM4.61233 19.6094V13.3322H8.30014C10.4133 13.3322 11.7238 14.7169 11.7238 16.667C11.7238 18.444 10.6571 19.6094 8.19855 19.6094H4.61233ZM4.61233 9.95134V4.10112H7.95473C9.9053 4.10112 11.0127 5.24347 11.0127 6.95123C11.0127 8.82053 9.67164 9.95134 7.87345 9.95134H4.61233Z" fill="#8CB7F5"/>
<path d="M18.5179 23.6942H22.8458V13.6669C22.8458 11.486 24.2478 9.98596 26.1577 9.98596C26.7571 9.98596 27.58 10.1013 27.9864 10.2514V5.88965C27.6003 5.7858 27.0619 5.71656 26.625 5.71656C24.8776 5.71656 23.4452 6.87045 22.8763 9.06285H22.7137V5.97042H18.5179V23.6942Z" fill="#8CB7F5"/>
<path d="M33.6985 24.0288C36.0047 24.0288 37.4981 22.8865 38.26 21.2364H38.3819V23.6942H42.4863V11.7399C42.4863 7.51663 39.3369 5.73964 35.8624 5.73964C32.1238 5.73964 29.6653 7.77049 29.0659 11.0014L33.0686 11.3706C33.3633 10.1937 34.2878 9.32824 35.8421 9.32824C37.3152 9.32824 38.1584 10.1706 38.1584 11.6245V11.6937C38.1584 12.8361 37.0917 12.9861 34.3792 13.2861C31.2908 13.6092 28.5173 14.7861 28.5173 18.744C28.5173 22.2518 30.7219 24.0288 33.6985 24.0288ZM34.9379 20.6364C33.6071 20.6364 32.6521 19.9325 32.6521 18.5824C32.6521 17.1978 33.6579 16.517 35.1818 16.2747C36.1266 16.1247 37.6708 15.8708 38.1889 15.4785V17.3593C38.1889 19.2171 36.8377 20.6364 34.9379 20.6364Z" fill="#8CB7F5"/>
<path d="M49.6436 13.4476C49.6537 11.1629 50.8525 9.82441 52.5999 9.82441C54.3372 9.82441 55.3836 11.1168 55.3734 13.2861V23.6942H59.7012V12.4091C59.7012 8.2782 57.5678 5.73964 54.3168 5.73964C52.0005 5.73964 50.3243 7.032 49.6233 9.09746H49.4404V5.97042H45.3157V23.6942H49.6436V13.4476Z" fill="#8CB7F5"/>
<path d="M68.3342 23.9826C70.8537 23.9826 72.1642 22.3326 72.7636 20.8556H72.9465V23.6942H77.2134V0.0625H72.8957V8.94745H72.7636C72.1845 7.50509 70.935 5.73964 68.324 5.73964C64.9004 5.73964 62.005 8.76283 62.005 14.8554C62.005 20.7864 64.7785 23.9826 68.3342 23.9826ZM69.7057 20.071C67.5824 20.071 66.4242 17.9247 66.4242 14.8323C66.4242 11.7629 67.5621 9.65133 69.7057 9.65133C71.8086 9.65133 72.9871 11.6706 72.9871 14.8323C72.9871 17.994 71.7883 20.071 69.7057 20.071Z" fill="#8CB7F5"/>
</svg>
