<svg width="32" height="37" viewBox="0 0 32 37" fill="none" xmlns="http://www.w3.org/2000/svg">
<rect width="32" height="36.3457" transform="translate(0 0.40625)" fill="#FCB76C"/>
<path fill-rule="evenodd" clip-rule="evenodd" d="M23.5 27.0786H20.3922V21.5544C20.3922 20.2372 20.3716 18.5431 18.7769 18.5431C17.1597 18.5431 16.9131 19.9785 16.9131 21.4607V27.0786H13.8081V15.7192H16.7875V17.2728H16.8306C17.245 16.3794 18.2594 15.437 19.7716 15.437C22.9187 15.437 23.5 17.7892 23.5 20.8484V27.0786ZM10.3038 14.1678C9.30531 14.1678 8.5 13.2499 8.5 12.1201C8.5 10.9904 9.30531 10.0725 10.3038 10.0725C11.2975 10.0725 12.1047 10.9904 12.1047 12.1201C12.1047 13.2499 11.2975 14.1678 10.3038 14.1678ZM11.8581 27.0786H8.74656V15.7192H11.8581V27.0786ZM16 1.53906C7.71531 1.53906 1 9.16633 1 18.5761C1 27.9848 7.71531 35.6131 16 35.6131C24.2847 35.6131 31 27.9848 31 18.5761C31 9.16633 24.2847 1.53906 16 1.53906Z" fill="white"/>
</svg>
