<svg width="32" height="37" viewBox="0 0 32 37" fill="none" xmlns="http://www.w3.org/2000/svg">
<rect width="32" height="36.3457" transform="translate(0 0.40625)" fill="#FCB76C"/>
<path fill-rule="evenodd" clip-rule="evenodd" d="M16.0175 21.864C17.6103 21.864 18.9022 20.401 18.9022 18.595C18.9022 16.7902 17.6103 15.3271 16.0175 15.3271C14.4247 15.3271 13.1328 16.7902 13.1328 18.595C13.1328 20.401 14.4247 21.864 16.0175 21.864ZM19.3392 15.2475H21.367C21.5986 15.2475 21.787 15.0345 21.787 14.7726V12.4736C21.787 12.2117 21.5986 11.9987 21.367 11.9987H19.3392C19.1076 11.9987 18.9192 12.2117 18.9192 12.4736V14.7726C18.9192 15.0345 19.1076 15.2475 19.3392 15.2475ZM23.5 25.0736C23.5 26.1895 22.7022 27.0946 21.7169 27.0946H10.2831C9.29875 27.0946 8.5 26.1895 8.5 25.0736V12.0775C8.5 10.9616 9.29875 10.0576 10.2831 10.0576H21.7169C22.7022 10.0576 23.5 10.9616 23.5 12.0775V25.0736ZM16 1.53906C7.71531 1.53906 1 9.16633 1 18.5761C1 27.9848 7.71531 35.6131 16 35.6131C24.2847 35.6131 31 27.9848 31 18.5761C31 9.16633 24.2847 1.53906 16 1.53906ZM20.5804 18.5955C20.5804 21.446 18.5339 23.7662 16.0176 23.7662C13.5014 23.7662 11.4548 21.446 11.4548 18.5955C11.4548 18.1227 11.5111 17.6638 11.617 17.2283H10.2136V24.6372C10.2136 24.9002 10.4011 25.1132 10.6326 25.1132H21.4017C21.6342 25.1132 21.8217 24.9002 21.8217 24.6372V17.2283H20.4183C20.5242 17.6638 20.5804 18.1227 20.5804 18.5955Z" fill="white"/>
</svg>
