<svg width="32" height="37" viewBox="0 0 32 37" fill="none" xmlns="http://www.w3.org/2000/svg">
<rect width="32" height="36.3457" transform="translate(0 0.40625)" fill="#FCB76C"/>
<path fill-rule="evenodd" clip-rule="evenodd" d="M19.8953 12.8857L18.4834 12.8868C17.3762 12.8868 17.1616 13.4842 17.1616 14.3605V16.2942H19.8025L19.4584 19.3236H17.1616V27.0946H14.4081V19.3236H12.1056V16.2942H14.4081V14.0613C14.4081 11.4685 15.8022 10.0576 17.8375 10.0576C18.8125 10.0576 19.6506 10.1396 19.8953 10.1768V12.8857ZM16 1.53906C7.71625 1.53906 1 9.16633 1 18.5761C1 27.9848 7.71625 35.6131 16 35.6131C24.2847 35.6131 31 27.9848 31 18.5761C31 9.16633 24.2847 1.53906 16 1.53906Z" fill="white"/>
</svg>
