<svg width="32" height="37" viewBox="0 0 32 37" fill="none" xmlns="http://www.w3.org/2000/svg">
<rect width="32" height="36.3457" transform="translate(0 0.40625)" fill="#FCB76C"/>
<path fill-rule="evenodd" clip-rule="evenodd" d="M21.9644 15.1016C21.97 15.2517 21.9738 15.4019 21.9738 15.5542C21.9738 20.1723 18.8781 25.4985 13.2175 25.4985C11.4794 25.4985 9.86219 24.9203 8.5 23.9289C8.74094 23.9609 8.98562 23.9768 9.23406 23.9768C10.6759 23.9768 12.0025 23.4189 13.0562 22.4808C11.7091 22.4531 10.5728 21.4426 10.1809 20.0541C10.3694 20.0945 10.5616 20.1158 10.7603 20.1158C11.0406 20.1158 11.3125 20.0732 11.5712 19.9934C10.1631 19.6729 9.10281 18.2598 9.10281 16.5668C9.10281 16.5519 9.10281 16.537 9.10281 16.5221C9.51719 16.784 9.9925 16.9416 10.4969 16.9597C9.67094 16.3325 9.12719 15.2624 9.12719 14.0506C9.12719 13.4096 9.27906 12.8091 9.54437 12.2926C11.0622 14.4073 13.33 15.7991 15.8875 15.9449C15.835 15.6894 15.8078 15.4221 15.8078 15.1485C15.8078 13.2179 17.1859 11.6527 18.8847 11.6527C19.7706 11.6527 20.5703 12.0775 21.1309 12.7569C21.8322 12.6004 22.4912 12.3097 23.0856 11.9093C22.8559 12.7249 22.3675 13.4096 21.7328 13.843C22.3553 13.7578 22.9478 13.5704 23.5 13.2925C23.0875 13.9931 22.5653 14.6086 21.9644 15.1016ZM16 1.53906C7.71531 1.53906 1 9.16633 1 18.5761C1 27.9848 7.71531 35.6131 16 35.6131C24.2847 35.6131 31 27.9848 31 18.5761C31 9.16633 24.2847 1.53906 16 1.53906Z" fill="white"/>
</svg>
