<svg width="32" height="37" viewBox="0 0 32 37" fill="none" xmlns="http://www.w3.org/2000/svg">
<rect width="32" height="36.3457" transform="translate(0 0.40625)" fill="#FCB76C"/>
<path fill-rule="evenodd" clip-rule="evenodd" d="M23.5 19.2192C23.5 20.5982 23.35 21.9771 23.35 21.9771C23.35 21.9771 23.2038 23.1505 22.7537 23.668C22.1838 24.3463 21.5444 24.3495 21.2509 24.3889C19.1519 24.5614 16 24.5667 16 24.5667C16 24.5667 12.1 24.5263 10.9 24.3964C10.5662 24.325 9.81625 24.3463 9.24625 23.668C8.79625 23.1505 8.65 21.9771 8.65 21.9771C8.65 21.9771 8.5 20.5982 8.5 19.2192V17.9266C8.5 16.5476 8.65 15.1698 8.65 15.1698C8.65 15.1698 8.79625 13.9953 9.24625 13.4778C9.81625 12.7995 10.4556 12.7963 10.7491 12.7569C12.8481 12.5844 15.9972 12.5844 15.9972 12.5844H16.0028C16.0028 12.5844 19.1519 12.5844 21.2509 12.7569C21.5444 12.7963 22.1838 12.7995 22.7537 13.4778C23.2038 13.9953 23.35 15.1698 23.35 15.1698C23.35 15.1698 23.5 16.5476 23.5 17.9266V19.2192ZM16 1.53906C7.71531 1.53906 1 9.16633 1 18.5761C1 27.9848 7.71531 35.6131 16 35.6131C24.2847 35.6131 31 27.9848 31 18.5761C31 9.16633 24.2847 1.53906 16 1.53906ZM14.4514 20.7856L18.5042 18.4004L14.4505 15.9982L14.4514 20.7856Z" fill="white"/>
</svg>
