<svg width="104" height="29" viewBox="0 0 104 29" fill="none" xmlns="http://www.w3.org/2000/svg">
<path d="M28.1176 2.95006H25.5789V3.7995H27.3795C27.2904 4.99076 26.4116 5.49879 25.582 5.49879C24.5206 5.49879 23.5944 4.55711 23.5944 3.23718C23.5944 1.95146 24.4773 0.961305 25.5842 0.961305C26.4385 0.961305 26.9417 1.57515 26.9417 1.57515L27.4692 0.959227C27.4692 0.959227 26.7921 0.109375 25.5573 0.109375C23.985 0.109375 22.7687 1.60576 22.7687 3.22195C22.7687 4.80586 23.9129 6.35003 25.5973 6.35003C27.0791 6.35003 28.1637 5.20572 28.1637 3.51335C28.1637 3.15629 28.1176 2.95006 28.1176 2.95006Z" fill="white"/>
<path d="M28.5959 16.6408H34.1744C34.1783 16.6587 34.2752 17.1097 34.2752 17.8783C34.2752 21.5971 31.8921 24.112 28.6364 24.112C24.9347 24.112 22.4205 20.7186 22.4205 17.2384C22.4205 13.6868 25.0934 10.3986 28.5484 10.3987C31.2617 10.3987 32.7494 12.2662 32.7494 12.2662L31.5903 13.6196C31.5903 13.6196 30.4844 12.2705 28.6076 12.2705C26.1751 12.2705 24.235 14.4463 24.235 17.2717C24.235 20.1718 26.2702 22.2411 28.6025 22.2411C30.4255 22.2411 32.3567 21.1248 32.5523 18.5074H28.5959V16.6408Z" fill="white"/>
<path fill-rule="evenodd" clip-rule="evenodd" d="M34.9869 19.6604C34.9869 17.3068 36.6273 15.289 38.9165 15.289C40.798 15.289 42.8385 16.7924 42.8385 19.7117C42.8385 22.2586 41.0843 24.104 38.9431 24.104C36.5779 24.104 34.9869 22.0486 34.9869 19.6604ZM41.1315 19.7C41.1315 18.0464 40.0648 17.0201 38.9391 17.0201C37.6743 17.0201 36.7022 18.1604 36.7022 19.6871C36.7022 21.2474 37.6865 22.374 38.9339 22.374C40.0693 22.374 41.1315 21.3184 41.1315 19.7Z" fill="white"/>
<path fill-rule="evenodd" clip-rule="evenodd" d="M47.5553 15.289C45.2662 15.289 43.6257 17.3068 43.6257 19.6604C43.6257 22.0486 45.2168 24.104 47.5822 24.104C49.7233 24.104 51.4774 22.2586 51.4774 19.7117C51.4774 16.7924 49.4371 15.289 47.5553 15.289ZM47.578 17.0201C48.7036 17.0201 49.7704 18.0464 49.7704 19.7C49.7704 21.3184 48.7082 22.374 47.5727 22.374C46.3254 22.374 45.3413 21.2474 45.3413 19.6871C45.3413 18.1604 46.3131 17.0201 47.578 17.0201Z" fill="white"/>
<path fill-rule="evenodd" clip-rule="evenodd" d="M52.2644 19.6975C52.2644 17.3686 53.9161 15.2937 56.017 15.2937C56.9317 15.2937 57.6208 15.6929 58.1246 16.3052V15.5587H59.7634V23.4785C59.7634 26.5903 58.1713 28.0736 56.0822 28.0736C54.1724 28.0736 53.0996 26.7495 52.5665 25.4782L54.0689 24.7701C54.277 25.3381 54.8759 26.3396 56.0698 26.3396C57.3057 26.3396 58.1245 25.4285 58.1245 23.9079V23.0388C57.6872 23.6111 57.0949 24.1098 55.9807 24.1098C54.1791 24.1098 52.2644 22.3505 52.2644 19.6975ZM56.169 17.0214C57.1992 17.0214 58.257 18.0132 58.257 19.7069C58.257 21.4285 57.2014 22.3773 56.1463 22.3773C55.0264 22.3773 53.984 21.3518 53.984 19.7233C53.984 18.0312 55.0665 17.0214 56.169 17.0214Z" fill="white"/>
<path fill-rule="evenodd" clip-rule="evenodd" d="M63.7488 19.6848C63.7488 17.0611 65.4128 15.283 67.3947 15.283C68.9578 15.283 70.1389 16.4586 70.6452 17.866L70.9174 18.5847L65.6761 21.0369C65.9892 21.694 66.4946 22.3726 67.5933 22.3727C68.5715 22.3727 69.1578 21.773 69.5085 21.1593L70.8596 22.1731C70.2538 23.0872 69.2388 24.1073 67.585 24.1073C65.6035 24.1073 63.7488 22.4609 63.7488 19.6848ZM67.4631 16.9783C68.1772 16.9783 68.6911 17.4063 68.9094 17.9197L65.4092 19.5693C65.2584 18.2921 66.3316 16.9783 67.4631 16.9783Z" fill="white"/>
<path d="M62.7993 23.8457H61.0777V10.8546H62.7993V23.8457Z" fill="white"/>
<path d="M84.1598 23.8457H85.8814V10.8546H84.1598V23.8457Z" fill="white"/>
<path fill-rule="evenodd" clip-rule="evenodd" d="M76.7519 23.8457H75.0303V10.8546L79.1948 10.8544C81.2135 10.8544 82.8651 12.7167 82.8651 14.993C82.8651 17.2692 81.2135 19.1315 79.1948 19.1315H76.7519V23.8457ZM76.7519 17.1902V12.7957H79.1947C80.2633 12.7957 81.1436 13.7882 81.1436 14.993C81.1436 16.1977 80.2633 17.1902 79.1947 17.1902H76.7519Z" fill="white"/>
<path d="M98.5922 28.0736L103.577 15.2833H101.697L99.4409 21.0712L97.1851 15.2833H95.3048L98.5007 23.4837L96.7119 28.0736H98.5922Z" fill="white"/>
<path fill-rule="evenodd" clip-rule="evenodd" d="M92.9273 23.8457H94.6489V19.1733C94.9183 14.3544 89.5001 13.221 87.45 16.6949L88.8354 17.7431C89.8378 15.767 92.6983 16.2217 92.8863 18.3395C92.0266 18.0827 91.0979 17.8966 90.2494 17.9934C88.9249 18.1445 87.7909 19.093 87.6107 20.6464C87.5133 21.4859 87.6795 22.5206 88.1992 23.1512C89.0092 24.1338 90.3389 24.2662 91.4314 23.9304C92.0464 23.7414 92.5306 23.3293 92.9273 22.7971V23.8457ZM91.0221 22.2371C91.9644 21.9478 92.7071 21.1706 92.9273 20.0903C92.4456 19.9144 92.0024 19.7725 91.4945 19.7033C88.5361 19.2018 89.0314 22.849 91.0221 22.2371Z" fill="white"/>
<path d="M39.2774 6.22898H38.494V0.316852H39.2774V6.22898Z" fill="white"/>
<path d="M34.1063 6.22898H34.8899V1.20022H36.1759V0.316852H32.8203V1.20022H34.1063V6.22898Z" fill="white"/>
<path d="M31.9942 6.22898H28.9896V0.316852H31.9942V1.20022H29.7731V2.83123H31.7268V3.7146H29.7731V5.34547H31.9942V6.22898Z" fill="white"/>
<path d="M41.9847 6.22898V1.20022H43.2707V0.316852H39.9152V1.20022H41.2013V6.22898H41.9847Z" fill="white"/>
<path fill-rule="evenodd" clip-rule="evenodd" d="M45.2866 3.22195C45.2866 1.60562 46.503 0.109375 48.0754 0.109375C49.6477 0.109375 50.8641 1.60562 50.8641 3.22195C50.8641 4.79312 49.738 6.32524 48.0754 6.34947C46.4127 6.32524 45.2866 4.79312 45.2866 3.22195ZM48.0754 5.49838C47.0243 5.48383 46.1124 4.54686 46.1124 3.23718C46.1124 1.96199 46.9811 0.97751 48.0754 0.961582C49.1698 0.97751 50.0383 1.96199 50.0383 3.23718C50.0383 4.54686 49.1264 5.48383 48.0754 5.49838Z" fill="white"/>
<path d="M52.4302 6.22898H51.6467V0.316852H52.4302L54.9452 4.6211V0.316852H55.7287V6.22898H54.9465L52.4302 1.92251V6.22898Z" fill="white"/>
<path d="M1.37601 7.48367L10.2282 17.4503L1.41851 27.5044C1.16142 27.3202 1.0236 26.9213 1.02127 26.406L0.941431 8.56164C0.938974 7.99738 1.12101 7.6532 1.37601 7.48367Z" fill="white"/>
<path d="M2.38297 7.49711L13.1472 14.1191L10.5943 17.0323L2.00736 7.36401C2.13743 7.38326 2.268 7.42633 2.38297 7.49711Z" fill="white"/>
<path d="M13.6259 20.4456L10.9631 17.4474L13.6232 14.4119L17.2865 16.6652C18.1889 17.22 17.7273 17.9142 17.2865 18.1862L13.6259 20.4456Z" fill="white"/>
<path d="M2.38297 27.3839C2.30166 27.4351 2.22329 27.4753 2.14824 27.5071L10.5969 17.8654L13.1494 20.7393L2.38297 27.3839Z" fill="white"/>
</svg>
