<svg width="103" height="30" viewBox="0 0 103 30" fill="none" xmlns="http://www.w3.org/2000/svg">
<path d="M14.9295 0.320312C15.0799 1.86163 14.5382 3.38048 13.7465 4.49689C12.9203 5.59593 11.5987 6.43656 10.3115 6.32829C10.143 4.84519 10.7952 3.26812 11.5253 2.30595C12.3506 1.21405 13.7836 0.377512 14.9295 0.320312Z" fill="white"/>
<path d="M19.1433 9.21164C18.9997 9.30832 16.6191 10.9105 16.6452 14.1779C16.6759 18.1236 19.7069 19.428 19.7431 19.4412C19.725 19.5332 19.2685 21.3258 18.1316 23.1418C17.1823 24.7434 16.1877 26.3093 14.6079 26.3358C13.8566 26.3558 13.3494 26.1124 12.8208 25.8586C12.2697 25.5941 11.6954 25.3185 10.797 25.3185C9.84472 25.3185 9.24492 25.6032 8.66655 25.8778C8.16609 26.1154 7.68169 26.3454 6.99885 26.3767C5.49425 26.439 4.34474 24.6689 3.36099 23.0816C1.39441 19.8427 -0.136458 13.9542 1.91618 9.94717C2.91079 7.98196 4.72428 6.71643 6.66278 6.68272C7.51641 6.66304 8.33513 7.03399 9.05286 7.35918C9.60172 7.60786 10.0915 7.82977 10.4927 7.82977C10.845 7.82977 11.3211 7.61673 11.8759 7.36842C12.7503 6.97711 13.8204 6.49821 14.9105 6.62756C15.656 6.65208 17.7775 6.95953 19.1462 9.20971L19.1433 9.21164Z" fill="white"/>
<path fill-rule="evenodd" clip-rule="evenodd" d="M30.0406 1.20001H27.9142V8.33395H30.0406C31.9215 8.33395 33.0264 7.01395 33.0264 4.76451C33.0264 2.52001 31.9171 1.20001 30.0406 1.20001ZM28.7034 2.00091V7.53305H29.988C31.4217 7.53305 32.2197 6.54429 32.2197 4.7744C32.2197 2.98967 31.4261 2.00091 29.988 2.00091H28.7034Z" fill="white"/>
<path fill-rule="evenodd" clip-rule="evenodd" d="M36.0747 8.42294C34.812 8.42294 33.9614 7.39957 33.9614 5.76316C33.9614 4.12181 34.812 3.10338 36.0747 3.10338C37.3331 3.10338 38.1836 4.12181 38.1836 5.76316C38.1836 7.39957 37.3331 8.42294 36.0747 8.42294ZM37.4076 5.76316C37.4076 6.9744 36.8815 7.66654 36.0747 7.66654C35.268 7.66654 34.7375 6.9744 34.7375 5.76316C34.7375 4.55192 35.268 3.85979 36.0747 3.85979C36.8815 3.85979 37.4076 4.55192 37.4076 5.76316Z" fill="white"/>
<path d="M43.0033 8.33395H43.7793L45.0508 3.19237H44.2967L43.3847 7.37485H43.3672L42.3325 3.19237H41.5959L40.5656 7.37485H40.548L39.6361 3.19237H38.8775L40.1534 8.33395H40.9295L41.9554 4.35417H41.973L43.0033 8.33395Z" fill="white"/>
<path d="M46.6918 3.19237H45.9727V8.33395H46.7356V5.30833C46.7356 4.43822 47.2047 3.86473 47.9238 3.86473C48.6253 3.86473 48.9717 4.31956 48.9717 5.15013V8.33395H49.7345V4.99687C49.7345 3.83012 49.1558 3.10338 48.1562 3.10338C47.4503 3.10338 46.9636 3.45934 46.7093 4.01305H46.6918V3.19237Z" fill="white"/>
<path d="M51.0423 1.20001V8.33395H51.8052V1.20001H51.0423Z" fill="white"/>
<path fill-rule="evenodd" clip-rule="evenodd" d="M52.9112 5.76316C52.9112 7.39957 53.7618 8.42294 55.0245 8.42294C56.2828 8.42294 57.1334 7.39957 57.1334 5.76316C57.1334 4.12181 56.2828 3.10338 55.0245 3.10338C53.7618 3.10338 52.9112 4.12181 52.9112 5.76316ZM55.0245 7.66654C55.8312 7.66654 56.3574 6.9744 56.3574 5.76316C56.3574 4.55192 55.8312 3.85979 55.0245 3.85979C54.2178 3.85979 53.6872 4.55192 53.6872 5.76316C53.6872 6.9744 54.2178 7.66654 55.0245 7.66654Z" fill="white"/>
<path fill-rule="evenodd" clip-rule="evenodd" d="M59.5329 8.42294C58.6253 8.42294 58.0158 7.80496 58.0158 6.88047C58.0158 6.00047 58.6165 5.44676 59.6688 5.37754L60.9753 5.2935V4.86338C60.9753 4.23552 60.607 3.85979 59.9757 3.85979C59.3882 3.85979 59.0199 4.17125 58.9234 4.67552H58.1868C58.2394 3.78563 58.9146 3.10338 59.9932 3.10338C61.063 3.10338 61.7382 3.75597 61.7382 4.77934V8.33395H61.0148V7.44901H60.9972C60.7254 8.03732 60.1467 8.42294 59.5329 8.42294ZM60.9753 6.38114C60.9753 7.12272 60.4229 7.69126 59.7038 7.69126C59.1558 7.69126 58.7919 7.36991 58.7919 6.88047C58.7919 6.39597 59.1426 6.08945 59.7565 6.04496L60.9753 5.96092V6.38114Z" fill="white"/>
<path fill-rule="evenodd" clip-rule="evenodd" d="M62.7829 5.76316C62.7829 7.37485 63.5721 8.42294 64.7339 8.42294C65.3916 8.42294 65.9133 8.0571 66.2071 7.46384H66.2203V8.33395H66.9481V1.20001H66.1852V4.02788H66.1676C65.8958 3.46428 65.3697 3.10338 64.7164 3.10338C63.5677 3.10338 62.7829 4.15147 62.7829 5.76316ZM64.8786 3.85979C64.0719 3.85979 63.5633 4.60136 63.5633 5.76316C63.5633 6.92991 64.0719 7.66654 64.8786 7.66654C65.6634 7.66654 66.1896 6.91507 66.1896 5.76316C66.1896 4.61619 65.6634 3.85979 64.8786 3.85979Z" fill="white"/>
<path fill-rule="evenodd" clip-rule="evenodd" d="M72.3082 8.42294C71.0455 8.42294 70.1949 7.39957 70.1949 5.76316C70.1949 4.12181 71.0455 3.10338 72.3082 3.10338C73.5665 3.10338 74.4171 4.12181 74.4171 5.76316C74.4171 7.39957 73.5665 8.42294 72.3082 8.42294ZM73.641 5.76316C73.641 6.9744 73.1149 7.66654 72.3082 7.66654C71.5014 7.66654 70.9709 6.9744 70.9709 5.76316C70.9709 4.55192 71.5014 3.85979 72.3082 3.85979C73.1149 3.85979 73.641 4.55192 73.641 5.76316Z" fill="white"/>
<path d="M76.2027 3.19237H75.4837V8.33395H76.2466V5.30833C76.2466 4.43822 76.7157 3.86473 77.4347 3.86473C78.1362 3.86473 78.4826 4.31956 78.4826 5.15013V8.33395H79.2455V4.99687C79.2455 3.83012 78.6668 3.10338 77.6671 3.10338C76.9612 3.10338 76.4745 3.45934 76.2203 4.01305H76.2027V3.19237Z" fill="white"/>
<path d="M83.6629 1.95147H82.9001V3.19237H82.2205V3.89934H82.9001V6.99912C82.9001 7.98789 83.2245 8.3735 84.0619 8.3735C84.2417 8.3735 84.4521 8.35867 84.5442 8.33395V7.61215C84.4916 7.62204 84.3162 7.63687 84.2285 7.63687C83.8383 7.63687 83.6629 7.42429 83.6629 6.95462V3.89934H84.5486V3.19237H83.6629V1.95147Z" fill="white"/>
<path d="M85.6985 1.20001V8.33395H86.4614V5.33799C86.4614 4.4481 86.9305 3.86473 87.689 3.86473C88.4037 3.86473 88.7676 4.35417 88.7676 5.1699V8.33395H89.5305V5.0117C89.5305 3.86473 88.9254 3.10338 87.9258 3.10338C87.233 3.10338 86.7332 3.43956 86.4789 4.01305H86.4614V1.20001H85.6985Z" fill="white"/>
<path fill-rule="evenodd" clip-rule="evenodd" d="M94.5737 6.86069H93.824C93.6968 7.34519 93.2716 7.67642 92.6928 7.67642C91.8729 7.67642 91.3599 7.02878 91.3599 6.04496V5.99552H94.6307V5.66923C94.6307 4.11192 93.8722 3.10338 92.6402 3.10338C91.3819 3.10338 90.5751 4.18608 90.5751 5.78294C90.5751 7.39957 91.3687 8.42294 92.6753 8.42294C93.6705 8.42294 94.4422 7.76047 94.5737 6.86069ZM92.627 3.8499C91.9124 3.8499 91.4126 4.46788 91.3643 5.32316H93.8415C93.824 4.46293 93.3461 3.8499 92.627 3.8499Z" fill="white"/>
<path fill-rule="evenodd" clip-rule="evenodd" d="M35.3021 25.8225L34.1972 22.1416H29.5936L28.4887 25.8225H26.5384L30.8993 12.2032H32.9249L37.2858 25.8225H35.3021ZM30.0707 20.4427L31.8703 14.4683H31.9205L33.7201 20.4427H30.0707Z" fill="white"/>
<path fill-rule="evenodd" clip-rule="evenodd" d="M47.1021 20.858C47.1021 17.7151 45.629 15.7331 43.3941 15.7331C42.1218 15.7331 41.109 16.4598 40.5901 17.6018H40.5566V15.8935H38.8072V29.107H40.6152V24.1897H40.657C41.1593 25.294 42.1637 25.9924 43.4276 25.9924C45.6373 25.9924 47.1021 24.001 47.1021 20.858ZM42.917 24.2652C44.3483 24.2652 45.2439 22.9439 45.2439 20.858C45.2439 18.7816 44.3483 17.4508 42.917 17.4508C41.5359 17.4508 40.6068 18.8099 40.6068 20.858C40.6068 22.925 41.5275 24.2652 42.917 24.2652Z" fill="white"/>
<path fill-rule="evenodd" clip-rule="evenodd" d="M53.4867 15.7331C55.7215 15.7331 57.1947 17.7151 57.1947 20.858C57.1947 24.001 55.7299 25.9924 53.5201 25.9924C52.2562 25.9924 51.2518 25.294 50.7496 24.1897H50.7077V29.107H48.8998V15.8935H50.6491V17.6018H50.6826C51.2016 16.4598 52.2144 15.7331 53.4867 15.7331ZM55.3365 20.858C55.3365 22.9439 54.4409 24.2652 53.0095 24.2652C51.6201 24.2652 50.6994 22.925 50.6994 20.858C50.6994 18.8099 51.6285 17.4508 53.0095 17.4508C54.4409 17.4508 55.3365 18.7816 55.3365 20.858Z" fill="white"/>
<path d="M64.4059 22.0284H62.556C62.6732 24.4917 64.4812 26.049 67.1597 26.049C70.0223 26.049 71.8219 24.454 71.8219 21.9057C71.8219 19.9142 70.7924 18.7911 68.3148 18.1304L66.9839 17.7623C65.427 17.3281 64.7909 16.7618 64.7909 15.7991C64.7909 14.591 65.7869 13.7605 67.2434 13.7605C68.6998 13.7605 69.6959 14.5816 69.8047 15.9407H71.6294C71.5708 13.5906 69.8214 11.9767 67.2685 11.9767C64.6904 11.9767 62.8741 13.5906 62.8741 15.9407C62.8741 17.8378 63.9036 19.0081 66.1218 19.6122L67.687 20.0369C69.2522 20.4711 69.9135 21.1034 69.9135 22.1605C69.9135 23.378 68.817 24.2652 67.2936 24.2652C65.7032 24.2652 64.5398 23.378 64.4059 22.0284Z" fill="white"/>
<path d="M76.0385 13.5434H74.2222V15.8935H72.9415V17.5075H74.2222V23.2081C74.2222 25.1241 74.9169 25.8886 76.6998 25.8886C77.1015 25.8886 77.5033 25.8508 77.7042 25.7942V24.1803C77.587 24.2086 77.2941 24.2275 77.1099 24.2275C76.3733 24.2275 76.0385 23.8405 76.0385 22.9816V17.5075H77.7126V15.8935H76.0385V13.5434Z" fill="white"/>
<path fill-rule="evenodd" clip-rule="evenodd" d="M78.9996 20.858C78.9996 24.0576 80.6569 26.0113 83.1764 26.0113C85.6958 26.0113 87.3531 24.0576 87.3531 20.858C87.3531 17.6679 85.6874 15.7142 83.1764 15.7142C80.6653 15.7142 78.9996 17.6679 78.9996 20.858ZM83.1764 24.3313C84.5993 24.3313 85.5117 23.0666 85.5117 20.858C85.5117 18.6589 84.5909 17.3942 83.1764 17.3942C81.7618 17.3942 80.8411 18.6589 80.8411 20.858C80.8411 23.0666 81.7618 24.3313 83.1764 24.3313Z" fill="white"/>
<path d="M89.1591 15.8935H90.8834V17.583H90.9252C91.2182 16.4221 92.005 15.7331 93.0429 15.7331C93.3024 15.7331 93.5284 15.7803 93.6623 15.8086V17.7057C93.52 17.6396 93.2019 17.5924 92.8504 17.5924C91.6869 17.5924 90.9671 18.4702 90.9671 19.8764V25.8225H89.1591V15.8935Z" fill="white"/>
<path fill-rule="evenodd" clip-rule="evenodd" d="M101.026 22.9132H102.742C102.491 24.7253 100.968 26.0183 98.9503 26.0183C96.3639 26.0183 94.7987 24.0458 94.7987 20.9123C94.7987 17.7977 96.389 15.7212 98.875 15.7212C101.319 15.7212 102.842 17.6655 102.842 20.6763V21.3747H96.6234V21.4974C96.6234 23.2246 97.5441 24.3667 98.9922 24.3667C100.022 24.3667 100.783 23.7815 101.026 22.9132ZM96.6234 20.0668L101.026 20.0199C101.026 19.6016 100.871 18.8261 100.506 18.4148C100.141 18.0036 99.6044 17.6914 98.875 17.6914C97.4062 17.6914 96.6234 18.7979 96.6234 20.0668Z" fill="white"/>
</svg>
